<?xml version="1.0" standalone="no"?>
<!DOCTYPE svg PUBLIC "-//W3C//DTD SVG 20010904//EN"
 "http://www.w3.org/TR/2001/REC-SVG-20010904/DTD/svg10.dtd">
<svg version="1.0" xmlns="http://www.w3.org/2000/svg"
 width="1337.000000pt" height="710.000000pt" viewBox="0 0 1337.000000 710.000000"
 preserveAspectRatio="xMidYMid meet">

<g transform="translate(0.000000,710.000000) scale(0.100000,-0.100000)"
fill="#000000" stroke="none">
<path d="M7235 7077 c-178 -65 -309 -170 -368 -294 -28 -59 -32 -79 -32 -148
0 -72 3 -86 33 -141 66 -122 211 -281 307 -337 93 -54 174 -133 235 -227 46
-72 100 -181 100 -201 0 -5 -48 -9 -106 -9 l-106 0 -97 82 c-344 292 -740 438
-1192 438 -107 0 -120 2 -115 16 16 41 27 163 21 222 -15 141 -66 232 -179
317 -102 77 -150 96 -275 107 -58 5 -608 25 -1221 44 -909 29 -1125 34 -1169
24 -62 -14 -227 -98 -284 -144 -96 -79 -167 -217 -167 -325 1 -120 111 -280
310 -449 171 -144 292 -286 342 -399 26 -59 20 -106 -31 -262 -52 -157 -124
-323 -257 -591 l-111 -225 -22 49 c-44 100 -56 157 -55 266 1 165 37 273 153
450 72 111 100 180 108 265 14 156 -79 323 -244 436 -89 62 -140 74 -313 72
-1069 -10 -2038 -26 -2090 -34 -85 -13 -178 -59 -236 -117 -169 -168 -210
-327 -140 -531 51 -147 97 -198 281 -314 274 -172 518 -379 609 -516 42 -65
89 -146 579 -1026 371 -666 467 -862 558 -1137 103 -314 110 -576 22 -821
-108 -303 -320 -559 -562 -682 -69 -34 -150 -111 -184 -172 -14 -27 -37 -90
-52 -142 -49 -170 -22 -318 77 -426 60 -66 177 -146 250 -171 108 -37 112 -36
1382 250 872 196 1193 272 1235 292 65 32 170 135 218 216 83 137 82 269 -1
442 -56 116 -116 169 -282 250 -224 109 -318 186 -377 305 l-32 66 -3 516 -3
516 114 244 c63 134 123 261 133 282 l20 38 17 -89 c93 -485 319 -931 641
-1261 273 -280 554 -447 901 -536 184 -47 295 -59 498 -52 341 11 636 105 927
295 258 168 499 419 658 685 l47 77 3 -182 c5 -323 -19 -495 -108 -753 -87
-253 -198 -490 -298 -640 -33 -50 -71 -112 -85 -140 -14 -27 -42 -81 -62 -120
-35 -65 -37 -74 -31 -134 7 -83 50 -175 113 -242 65 -69 205 -166 267 -184 28
-8 76 -22 107 -31 54 -15 79 -14 560 20 1095 78 1449 96 1964 102 267 4 454
10 475 16 19 6 80 33 135 60 161 79 231 161 276 323 22 80 22 80 10 468 -7
214 -10 391 -8 394 3 2 49 -1 101 -7 140 -18 413 -8 550 19 894 180 1573 1008
1686 2058 16 148 8 552 -14 687 -167 1027 -841 1789 -1716 1940 -514 89 -1029
-57 -1450 -411 l-100 -83 -280 2 -281 3 55 67 c90 108 211 184 396 248 108 37
160 69 220 137 48 54 50 59 80 161 19 64 22 92 19 215 -4 131 -6 146 -32 197
-48 96 -100 162 -157 201 -111 74 -25 67 -1385 110 -1472 46 -1402 45 -1480
16z m1476 -185 l1215 -38 54 -30 c41 -24 63 -46 94 -95 l41 -64 3 -115 c3 -98
0 -126 -18 -180 -34 -101 -73 -134 -215 -180 -195 -63 -359 -178 -473 -329
-48 -64 -172 -284 -172 -305 0 -3 206 -6 458 -6 l459 0 24 26 c46 50 205 178
284 230 488 316 1077 349 1599 87 613 -307 1032 -956 1126 -1743 16 -138 14
-442 -5 -594 -106 -862 -631 -1568 -1342 -1806 -160 -53 -263 -71 -448 -77
-187 -6 -281 3 -444 42 -57 14 -105 24 -107 22 -2 -2 4 -219 13 -483 13 -385
13 -491 4 -538 -25 -123 -70 -173 -211 -239 l-95 -45 -425 -5 c-511 -7 -982
-32 -2025 -107 -270 -20 -413 -26 -419 -20 -6 6 -27 10 -47 10 -104 0 -274
118 -325 225 -30 63 -30 80 1 130 14 22 36 63 50 92 13 29 49 89 80 135 154
228 333 666 402 983 l26 120 4 715 c3 457 1 711 -5 705 -5 -5 -51 -125 -101
-265 -103 -286 -195 -484 -299 -641 -281 -427 -681 -710 -1146 -811 -87 -19
-132 -22 -316 -22 -201 0 -223 1 -335 28 -346 81 -621 239 -880 507 -174 179
-280 334 -396 574 -159 330 -228 628 -249 1084 -5 124 -12 226 -14 228 -2 2
-128 -263 -280 -589 l-277 -592 3 -550 3 -551 24 -60 c72 -179 198 -296 456
-422 162 -79 185 -98 229 -190 46 -94 54 -153 32 -220 -21 -64 -112 -173 -168
-202 -28 -14 -452 -113 -1228 -287 -1152 -258 -1186 -265 -1237 -254 -62 13
-158 75 -206 131 -63 73 -72 154 -32 286 30 98 72 151 149 190 303 154 575
508 670 873 85 330 41 642 -155 1103 -101 236 -184 389 -887 1647 -167 297
-183 321 -296 438 -121 124 -271 243 -471 372 -207 135 -229 156 -266 258 -51
145 -36 220 67 331 77 83 118 102 234 107 70 3 1182 18 1945 26 224 3 233 0
332 -94 75 -73 103 -120 110 -192 7 -66 -16 -125 -91 -239 -121 -184 -169
-331 -170 -522 0 -135 15 -208 71 -340 33 -79 169 -315 182 -315 3 0 52 87
108 193 277 523 432 889 464 1093 10 69 10 87 -5 139 -45 154 -174 318 -406
517 -154 132 -250 257 -250 327 0 86 74 174 206 245 71 39 101 49 149 53 33 2
578 -14 1210 -35 1276 -44 1178 -35 1284 -116 82 -64 105 -113 104 -231 0
-123 -30 -192 -137 -315 -43 -50 -77 -92 -75 -94 2 -2 60 8 129 22 109 22 152
25 340 26 248 1 340 -12 533 -75 217 -71 423 -194 613 -366 l81 -73 262 0
c143 0 261 2 261 5 0 2 -18 59 -40 126 -97 296 -244 503 -434 613 -37 22 -85
60 -107 85 -21 25 -59 70 -84 99 -54 63 -85 121 -85 160 0 38 43 121 82 159
18 18 77 55 131 82 97 51 98 51 190 50 50 0 639 -17 1308 -37z"/>
<path d="M7341 6666 c-14 -10 -30 -23 -35 -27 -18 -16 36 -78 104 -118 93 -55
232 -189 309 -298 78 -109 167 -289 221 -448 36 -105 110 -383 110 -414 0 -8
-130 -11 -447 -11 l-448 0 -80 76 c-211 200 -437 329 -695 396 -153 40 -400
50 -562 23 -351 -58 -674 -250 -926 -550 -249 -296 -410 -670 -474 -1100 -20
-137 -17 -521 5 -665 106 -676 475 -1228 998 -1491 105 -52 260 -104 379 -125
131 -24 363 -24 490 0 498 95 916 439 1170 961 156 320 224 622 224 1000 0
211 -10 317 -50 504 -18 87 -21 118 -12 128 20 24 140 90 221 123 81 31 267
83 274 76 12 -12 22 -733 23 -1638 0 -982 -1 -1042 -19 -1150 -59 -341 -275
-887 -461 -1164 -71 -106 -79 -149 -32 -180 26 -17 40 -17 462 15 1393 103
1849 131 2197 132 153 1 289 4 302 8 15 4 27 17 31 31 6 21 -15 763 -33 1221
l-5 126 111 -57 c128 -64 272 -114 402 -137 120 -22 360 -22 481 0 832 151
1443 1045 1401 2052 -15 348 -84 628 -227 920 -191 391 -468 676 -820 844
-192 91 -372 131 -595 131 -235 0 -409 -41 -620 -145 -150 -74 -271 -158 -402
-280 l-92 -85 -654 0 -655 0 13 58 c105 448 347 777 705 956 59 30 141 65 181
78 60 19 76 29 97 60 l25 38 -26 34 -26 34 -163 6 c-90 4 -615 20 -1168 36
-553 16 -1045 31 -1094 33 -76 3 -92 0 -115 -17z m3739 -1197 c51 -17 80 -47
80 -84 0 -44 -48 -115 -176 -257 -207 -230 -266 -321 -388 -593 -102 -226
-136 -293 -166 -325 -63 -68 -118 -19 -179 158 -17 51 -21 85 -21 192 0 215
43 367 149 528 135 204 308 346 476 389 56 14 171 10 225 -8z m-5215 -41 c52
-13 85 -44 85 -80 0 -54 -37 -108 -185 -273 -211 -235 -265 -321 -416 -663
-91 -205 -124 -258 -172 -276 -30 -10 -79 49 -117 139 -33 76 -35 87 -38 222
-5 167 11 263 63 391 88 218 315 459 495 526 97 36 184 40 285 14z m2219 -275
c7 -34 26 -208 26 -244 0 -24 -6 -27 -77 -43 -169 -40 -355 -112 -449 -175
l-31 -21 -18 47 c-47 127 -132 288 -229 436 l-18 27 395 0 395 0 6 -27z m1949
-60 c-83 -133 -163 -296 -216 -446 -7 -17 -10 -16 -40 10 -55 48 -177 119
-261 153 -141 55 -342 96 -579 115 l-78 7 5 41 c3 23 8 76 11 117 4 41 9 78
11 82 3 5 275 8 604 8 l599 0 -56 -87z m-935 -359 c279 -36 482 -119 604 -247
43 -44 49 -56 45 -82 -3 -16 -12 -70 -21 -120 -116 -674 62 -1367 474 -1843
l67 -78 -59 -95 c-92 -146 -163 -236 -263 -334 -101 -99 -175 -148 -274 -182
-63 -21 -81 -22 -382 -23 l-316 0 -7 163 c-3 89 -18 421 -31 737 -42 977 -75
1884 -75 2042 l0 86 63 -5 c34 -2 113 -11 175 -19z"/>
<path d="M9110 4438 c0 -104 86 -2268 96 -2415 l6 -93 179 0 c171 0 182 1 227
24 95 49 219 175 320 324 l40 58 -30 39 c-173 226 -326 553 -403 856 -79 311
-100 721 -52 1017 l14 84 -36 22 c-52 32 -106 52 -223 81 -57 14 -111 28 -120
31 -15 4 -18 -1 -18 -28z m204 -252 c-3 -28 -9 -82 -14 -121 -7 -65 -7 -61 -9
57 -1 109 1 127 14 122 12 -5 14 -17 9 -58z m3 -698 c-3 -7 -5 -2 -5 12 0 14
2 19 5 13 2 -7 2 -19 0 -25z m98 -421 c69 -230 179 -469 295 -647 l59 -89 -26
-33 c-47 -59 -127 -140 -167 -169 -36 -27 -46 -29 -123 -29 l-83 0 0 33 c0 17
-11 291 -25 607 -14 316 -24 609 -24 650 l0 75 29 -140 c16 -77 45 -194 65
-258z"/>
<path d="M3126 6539 c-45 -36 -36 -65 46 -139 351 -317 492 -513 528 -734 40
-249 -182 -799 -673 -1671 -114 -202 -105 -192 -131 -161 -215 254 -298 371
-380 534 -98 196 -136 343 -136 523 0 228 73 455 215 667 25 37 45 72 45 78 0
5 -13 23 -29 38 l-28 27 -1059 -16 -1059 -15 -26 -32 c-23 -28 -25 -35 -16
-66 6 -19 20 -41 31 -49 12 -8 86 -57 166 -110 80 -52 192 -132 250 -177 120
-93 308 -275 368 -356 62 -84 832 -1460 974 -1740 187 -370 306 -712 339 -974
16 -130 6 -360 -20 -484 -66 -304 -222 -599 -434 -819 -119 -123 -190 -181
-311 -254 -80 -49 -90 -58 -101 -96 -12 -38 -11 -43 9 -61 11 -10 27 -22 34
-26 6 -4 528 108 1160 250 1187 265 1181 264 1197 315 13 41 -22 77 -128 130
-260 131 -410 266 -503 454 -81 165 -78 136 -82 802 l-3 591 426 959 c235 527
460 1022 501 1101 316 611 723 1085 1103 1286 63 33 96 57 110 80 27 44 27 47
-13 73 -33 21 -51 22 -1112 57 -1288 43 -1223 42 -1258 15z"/>
</g>
</svg>
